# xmcd
#
# Track frame offsets: 
#        150
#        16105
#        28925
#        43147
#        57219
#        71696
#        88663
#        103853
#        115825
#        132065
#        149917
#        171347
#
# Disc length: 2458 seconds
#
# Revision: 0
# Processed by: cddbd v1.5.2PL0 Copyright (c) Steve Scherf et al.
# Submitted via: ExactAudioCopy v1.0b1
#
DISCID=af09980c
DTITLE=J.J. Cale - Roll On
DYEAR=2009
DGENRE=Blues
TTITLE0=Who Knew
TTITLE1=Former Me
TTITLE2=Where The Sun Don't Shine
TTITLE3=Down To Memphis
TTITLE4=Strange Days
TTITLE5=Cherry Street
TTITLE6=Fonda-Lina
TTITLE7=Leaving In The Morning
TTITLE8=Oh Mary
TTITLE9=Old Friend
TTITLE10=Roll On
TTITLE11=Bring Down The Curtain
EXTD=
EXTT0=
EXTT1=
EXTT2=
EXTT3=
EXTT4=
EXTT5=
EXTT6=
EXTT7=
EXTT8=
EXTT9=
EXTT10=
EXTT11=
PLAYORDER=
